<svg width="16" height="19" viewBox="0 0 16 19" fill="none" xmlns="http://www.w3.org/2000/svg">
<path fill-rule="evenodd" clip-rule="evenodd" d="M7.773 4.284C7.676 4.284 7.58 4.272 7.52 4.26C7.508 4.212 7.484 4.067 7.484 3.923C7.484 2.96 7.977 2.01 8.507 1.408C9.181 0.626 10.3 0.036 11.238 0C11.262 0.109 11.274 0.241 11.274 0.373C11.274 1.324 10.865 2.275 10.288 2.96C9.674 3.719 8.615 4.284 7.773 4.284ZM14.631 6.329C14.523 6.414 12.622 7.485 12.622 9.867C12.622 12.622 15.041 13.597 15.113 13.621C15.101 13.681 14.728 14.957 13.837 16.257C13.043 17.4 12.213 18.543 10.949 18.543C9.686 18.543 9.361 17.808 7.905 17.808C6.485 17.808 5.98 18.567 4.825 18.567C3.669 18.567 2.863 17.508 1.937 16.208C0.866 14.68 0 12.31 0 10.059C0 6.45 2.346 4.536 4.656 4.536C5.884 4.536 6.906 5.343 7.676 5.343C8.411 5.343 9.554 4.489 10.949 4.489C11.479 4.489 13.38 4.536 14.631 6.329Z" fill="white"/>
</svg>
